<mxfile host="65bd71144e">
    <diagram id="BKEKtbX7UNuSLrMuigM0" name="Page-1">
        <mxGraphModel dx="1386" dy="779" grid="1" gridSize="10" guides="1" tooltips="1" connect="1" arrows="1" fold="1" page="1" pageScale="1" pageWidth="1169" pageHeight="827" math="0" shadow="0">
            <root>
                <mxCell id="0"/>
                <mxCell id="1" parent="0"/>
                <mxCell id="z99f_Usk3d1U_hV03q1l-1" value="" style="rounded=1;whiteSpace=wrap;html=1;gradientColor=none;fillColor=#FFFFFF;glass=0;shadow=0;sketch=0;labelPadding=0;fillOpacity=100;arcSize=2;" parent="1" vertex="1">
                    <mxGeometry x="370" y="190" width="340" height="460" as="geometry"/>
                </mxCell>
                <mxCell id="z99f_Usk3d1U_hV03q1l-2" value="&amp;nbsp;Email" style="rounded=1;whiteSpace=wrap;html=1;align=left;fillColor=#FFFFFF;fontColor=#000000;strokeWidth=1.2;fontSize=11;" parent="1" vertex="1">
                    <mxGeometry x="390" y="300" width="300" height="40" as="geometry"/>
                </mxCell>
                <mxCell id="z99f_Usk3d1U_hV03q1l-3" value="&amp;nbsp;Current Password" style="rounded=1;whiteSpace=wrap;html=1;fillColor=#FFFFFF;fontColor=#000000;align=left;strokeWidth=1.2;fontSize=11;" parent="1" vertex="1">
                    <mxGeometry x="390" y="360" width="300" height="40" as="geometry"/>
                </mxCell>
                <mxCell id="z99f_Usk3d1U_hV03q1l-4" value="Reset Password" style="rounded=1;whiteSpace=wrap;html=1;fillColor=#0050ef;fontColor=#ffffff;strokeColor=#001DBC;strokeWidth=0;" parent="1" vertex="1">
                    <mxGeometry x="390" y="560" width="300" height="40" as="geometry"/>
                </mxCell>
                <mxCell id="z99f_Usk3d1U_hV03q1l-5" value="Create new account" style="text;html=1;align=center;verticalAlign=middle;resizable=0;points=[];autosize=1;fontColor=#3333FF;" parent="1" vertex="1">
                    <mxGeometry x="475" y="605" width="130" height="30" as="geometry"/>
                </mxCell>
                <mxCell id="z99f_Usk3d1U_hV03q1l-7" value="&lt;font style=&quot;font-size: 22px;&quot;&gt;Reset Your Password&lt;/font&gt;" style="text;html=1;align=center;verticalAlign=middle;resizable=0;points=[];autosize=1;strokeColor=none;fillColor=none;fontColor=#000000;" parent="1" vertex="1">
                    <mxGeometry x="425" y="212" width="230" height="40" as="geometry"/>
                </mxCell>
                <mxCell id="z99f_Usk3d1U_hV03q1l-8" value="" style="endArrow=none;html=1;rounded=0;fontSize=22;entryX=1;entryY=0.25;entryDx=0;entryDy=0;strokeColor=#666666;strokeWidth=0.2;exitX=0;exitY=0.25;exitDx=0;exitDy=0;" parent="1" edge="1">
                    <mxGeometry width="50" height="50" relative="1" as="geometry">
                        <mxPoint x="370" y="272" as="sourcePoint"/>
                        <mxPoint x="710" y="272" as="targetPoint"/>
                    </mxGeometry>
                </mxCell>
                <mxCell id="z99f_Usk3d1U_hV03q1l-9" value="&amp;nbsp;New Password" style="rounded=1;whiteSpace=wrap;html=1;align=left;fillColor=#FFFFFF;fontColor=#000000;strokeWidth=1.2;fontSize=11;" parent="1" vertex="1">
                    <mxGeometry x="390" y="420" width="300" height="40" as="geometry"/>
                </mxCell>
                <mxCell id="z99f_Usk3d1U_hV03q1l-10" value="&amp;nbsp;Repeat New Password" style="rounded=1;whiteSpace=wrap;html=1;fillColor=#FFFFFF;fontColor=#000000;align=left;strokeWidth=1.2;fontSize=11;" parent="1" vertex="1">
                    <mxGeometry x="390" y="480" width="300" height="40" as="geometry"/>
                </mxCell>
            </root>
        </mxGraphModel>
    </diagram>
</mxfile>